<mxfile host="app.diagrams.net" modified="2022-09-09T07:18:33.700Z" agent="5.0 (Windows NT 10.0; Win64; x64) AppleWebKit/537.36 (KHTML, like Gecko) Chrome/104.0.0.0 Safari/537.36" etag="iPcll3fWBaM1g3-JPuXx" version="20.3.0" type="github">
  <diagram id="C5RBs43oDa-KdzZeNtuy" name="Page-1">
    <mxGraphModel dx="981" dy="494" grid="1" gridSize="10" guides="1" tooltips="1" connect="1" arrows="1" fold="1" page="1" pageScale="1" pageWidth="827" pageHeight="1169" math="0" shadow="0">
      <root>
        <mxCell id="WIyWlLk6GJQsqaUBKTNV-0" />
        <mxCell id="WIyWlLk6GJQsqaUBKTNV-1" parent="WIyWlLk6GJQsqaUBKTNV-0" />
        <mxCell id="WIyWlLk6GJQsqaUBKTNV-2" value="" style="rounded=0;html=1;jettySize=auto;orthogonalLoop=1;fontSize=11;endArrow=block;endFill=0;endSize=8;strokeWidth=1;shadow=0;labelBackgroundColor=none;edgeStyle=orthogonalEdgeStyle;" parent="WIyWlLk6GJQsqaUBKTNV-1" source="WIyWlLk6GJQsqaUBKTNV-3" target="WIyWlLk6GJQsqaUBKTNV-6" edge="1">
          <mxGeometry relative="1" as="geometry" />
        </mxCell>
        <mxCell id="WIyWlLk6GJQsqaUBKTNV-3" value="开始通过&lt;br&gt;&amp;nbsp;ObjectOutputStream#writeObject&lt;br&gt;进行序列化" style="rounded=1;whiteSpace=wrap;html=1;fontSize=12;glass=0;strokeWidth=1;shadow=0;" parent="WIyWlLk6GJQsqaUBKTNV-1" vertex="1">
          <mxGeometry x="270" y="20" width="200" height="50" as="geometry" />
        </mxCell>
        <mxCell id="WIyWlLk6GJQsqaUBKTNV-5" value="Yes" style="edgeStyle=orthogonalEdgeStyle;rounded=0;html=1;jettySize=auto;orthogonalLoop=1;fontSize=11;endArrow=block;endFill=0;endSize=8;strokeWidth=1;shadow=0;labelBackgroundColor=none;" parent="WIyWlLk6GJQsqaUBKTNV-1" source="WIyWlLk6GJQsqaUBKTNV-6" target="WIyWlLk6GJQsqaUBKTNV-7" edge="1">
          <mxGeometry y="10" relative="1" as="geometry">
            <mxPoint as="offset" />
          </mxGeometry>
        </mxCell>
        <mxCell id="V5Aks7dAkCr-0SlDkymJ-13" style="edgeStyle=orthogonalEdgeStyle;rounded=0;orthogonalLoop=1;jettySize=auto;html=1;entryX=0.5;entryY=0;entryDx=0;entryDy=0;" edge="1" parent="WIyWlLk6GJQsqaUBKTNV-1" source="WIyWlLk6GJQsqaUBKTNV-6" target="V5Aks7dAkCr-0SlDkymJ-11">
          <mxGeometry relative="1" as="geometry" />
        </mxCell>
        <mxCell id="V5Aks7dAkCr-0SlDkymJ-14" value="No" style="edgeLabel;html=1;align=center;verticalAlign=middle;resizable=0;points=[];" vertex="1" connectable="0" parent="V5Aks7dAkCr-0SlDkymJ-13">
          <mxGeometry x="-0.24" y="2" relative="1" as="geometry">
            <mxPoint as="offset" />
          </mxGeometry>
        </mxCell>
        <mxCell id="WIyWlLk6GJQsqaUBKTNV-6" value="是否开启&lt;br&gt;方法覆盖" style="rhombus;whiteSpace=wrap;html=1;shadow=0;fontFamily=Helvetica;fontSize=12;align=center;strokeWidth=1;spacing=6;spacingTop=-4;" parent="WIyWlLk6GJQsqaUBKTNV-1" vertex="1">
          <mxGeometry x="320" y="100" width="100" height="80" as="geometry" />
        </mxCell>
        <mxCell id="WIyWlLk6GJQsqaUBKTNV-7" value="调用&lt;br&gt;writeObjectOverride" style="rounded=1;whiteSpace=wrap;html=1;fontSize=12;glass=0;strokeWidth=1;shadow=0;" parent="WIyWlLk6GJQsqaUBKTNV-1" vertex="1">
          <mxGeometry x="480" y="120" width="120" height="40" as="geometry" />
        </mxCell>
        <mxCell id="V5Aks7dAkCr-0SlDkymJ-8" style="edgeStyle=orthogonalEdgeStyle;rounded=0;orthogonalLoop=1;jettySize=auto;html=1;" edge="1" parent="WIyWlLk6GJQsqaUBKTNV-1" source="V5Aks7dAkCr-0SlDkymJ-0" target="V5Aks7dAkCr-0SlDkymJ-1">
          <mxGeometry relative="1" as="geometry" />
        </mxCell>
        <mxCell id="V5Aks7dAkCr-0SlDkymJ-0" value="Object" style="html=1;" vertex="1" parent="WIyWlLk6GJQsqaUBKTNV-1">
          <mxGeometry x="30" y="290" width="140" height="50" as="geometry" />
        </mxCell>
        <mxCell id="V5Aks7dAkCr-0SlDkymJ-9" style="edgeStyle=orthogonalEdgeStyle;rounded=0;orthogonalLoop=1;jettySize=auto;html=1;exitX=0.5;exitY=0;exitDx=0;exitDy=0;" edge="1" parent="WIyWlLk6GJQsqaUBKTNV-1" source="V5Aks7dAkCr-0SlDkymJ-1" target="V5Aks7dAkCr-0SlDkymJ-6">
          <mxGeometry relative="1" as="geometry" />
        </mxCell>
        <mxCell id="V5Aks7dAkCr-0SlDkymJ-1" value="SerializeObject" style="swimlane;fontStyle=0;childLayout=stackLayout;horizontal=1;startSize=26;fillColor=none;horizontalStack=0;resizeParent=1;resizeParentMax=0;resizeLast=0;collapsible=1;marginBottom=0;" vertex="1" parent="WIyWlLk6GJQsqaUBKTNV-1">
          <mxGeometry x="30" y="100" width="140" height="130" as="geometry" />
        </mxCell>
        <mxCell id="V5Aks7dAkCr-0SlDkymJ-2" value="+ a: String" style="text;strokeColor=none;fillColor=none;align=left;verticalAlign=top;spacingLeft=4;spacingRight=4;overflow=hidden;rotatable=0;points=[[0,0.5],[1,0.5]];portConstraint=eastwest;" vertex="1" parent="V5Aks7dAkCr-0SlDkymJ-1">
          <mxGeometry y="26" width="140" height="26" as="geometry" />
        </mxCell>
        <mxCell id="V5Aks7dAkCr-0SlDkymJ-3" value="+ b: String" style="text;strokeColor=none;fillColor=none;align=left;verticalAlign=top;spacingLeft=4;spacingRight=4;overflow=hidden;rotatable=0;points=[[0,0.5],[1,0.5]];portConstraint=eastwest;" vertex="1" parent="V5Aks7dAkCr-0SlDkymJ-1">
          <mxGeometry y="52" width="140" height="26" as="geometry" />
        </mxCell>
        <mxCell id="V5Aks7dAkCr-0SlDkymJ-4" value="+ c: String" style="text;strokeColor=none;fillColor=none;align=left;verticalAlign=top;spacingLeft=4;spacingRight=4;overflow=hidden;rotatable=0;points=[[0,0.5],[1,0.5]];portConstraint=eastwest;" vertex="1" parent="V5Aks7dAkCr-0SlDkymJ-1">
          <mxGeometry y="78" width="140" height="26" as="geometry" />
        </mxCell>
        <mxCell id="V5Aks7dAkCr-0SlDkymJ-7" value="- serialVersionUID: Long" style="text;strokeColor=none;fillColor=none;align=left;verticalAlign=top;spacingLeft=4;spacingRight=4;overflow=hidden;rotatable=0;points=[[0,0.5],[1,0.5]];portConstraint=eastwest;" vertex="1" parent="V5Aks7dAkCr-0SlDkymJ-1">
          <mxGeometry y="104" width="140" height="26" as="geometry" />
        </mxCell>
        <mxCell id="V5Aks7dAkCr-0SlDkymJ-6" value="«interface»&lt;br&gt;&lt;b&gt;Serializable&lt;/b&gt;" style="html=1;" vertex="1" parent="WIyWlLk6GJQsqaUBKTNV-1">
          <mxGeometry x="30" y="20" width="140" height="50" as="geometry" />
        </mxCell>
        <mxCell id="V5Aks7dAkCr-0SlDkymJ-16" value="" style="edgeStyle=orthogonalEdgeStyle;rounded=0;orthogonalLoop=1;jettySize=auto;html=1;" edge="1" parent="WIyWlLk6GJQsqaUBKTNV-1" source="V5Aks7dAkCr-0SlDkymJ-11" target="V5Aks7dAkCr-0SlDkymJ-15">
          <mxGeometry relative="1" as="geometry" />
        </mxCell>
        <mxCell id="V5Aks7dAkCr-0SlDkymJ-11" value="默认走&lt;br&gt;java.io.ObjectOutputStream#writeObject0" style="rounded=1;whiteSpace=wrap;html=1;fontSize=12;glass=0;strokeWidth=1;shadow=0;" vertex="1" parent="WIyWlLk6GJQsqaUBKTNV-1">
          <mxGeometry x="230" y="220" width="280" height="40" as="geometry" />
        </mxCell>
        <mxCell id="V5Aks7dAkCr-0SlDkymJ-24" value="" style="edgeStyle=orthogonalEdgeStyle;rounded=0;orthogonalLoop=1;jettySize=auto;html=1;" edge="1" parent="WIyWlLk6GJQsqaUBKTNV-1" source="V5Aks7dAkCr-0SlDkymJ-15" target="V5Aks7dAkCr-0SlDkymJ-23">
          <mxGeometry relative="1" as="geometry" />
        </mxCell>
        <mxCell id="V5Aks7dAkCr-0SlDkymJ-15" value="设置非块写入, 并将存在缓冲区的数据写入到文件." style="whiteSpace=wrap;html=1;rounded=1;glass=0;strokeWidth=1;shadow=0;" vertex="1" parent="WIyWlLk6GJQsqaUBKTNV-1">
          <mxGeometry x="230" y="300" width="280" height="40" as="geometry" />
        </mxCell>
        <mxCell id="V5Aks7dAkCr-0SlDkymJ-26" style="edgeStyle=orthogonalEdgeStyle;rounded=0;orthogonalLoop=1;jettySize=auto;html=1;" edge="1" parent="WIyWlLk6GJQsqaUBKTNV-1" source="V5Aks7dAkCr-0SlDkymJ-23" target="V5Aks7dAkCr-0SlDkymJ-25">
          <mxGeometry relative="1" as="geometry" />
        </mxCell>
        <mxCell id="V5Aks7dAkCr-0SlDkymJ-23" value="判断" style="whiteSpace=wrap;html=1;rounded=1;glass=0;strokeWidth=1;shadow=0;" vertex="1" parent="WIyWlLk6GJQsqaUBKTNV-1">
          <mxGeometry x="310" y="370" width="120" height="60" as="geometry" />
        </mxCell>
        <mxCell id="V5Aks7dAkCr-0SlDkymJ-29" value="" style="edgeStyle=orthogonalEdgeStyle;rounded=0;orthogonalLoop=1;jettySize=auto;html=1;" edge="1" parent="WIyWlLk6GJQsqaUBKTNV-1" source="V5Aks7dAkCr-0SlDkymJ-25" target="V5Aks7dAkCr-0SlDkymJ-28">
          <mxGeometry relative="1" as="geometry" />
        </mxCell>
        <mxCell id="V5Aks7dAkCr-0SlDkymJ-30" value="不存在" style="edgeLabel;html=1;align=center;verticalAlign=middle;resizable=0;points=[];" vertex="1" connectable="0" parent="V5Aks7dAkCr-0SlDkymJ-29">
          <mxGeometry x="-0.3019" y="-2" relative="1" as="geometry">
            <mxPoint as="offset" />
          </mxGeometry>
        </mxCell>
        <mxCell id="V5Aks7dAkCr-0SlDkymJ-37" value="" style="edgeStyle=orthogonalEdgeStyle;rounded=0;orthogonalLoop=1;jettySize=auto;html=1;" edge="1" parent="WIyWlLk6GJQsqaUBKTNV-1" source="V5Aks7dAkCr-0SlDkymJ-25" target="V5Aks7dAkCr-0SlDkymJ-36">
          <mxGeometry relative="1" as="geometry" />
        </mxCell>
        <mxCell id="V5Aks7dAkCr-0SlDkymJ-38" value="else if" style="edgeLabel;html=1;align=center;verticalAlign=middle;resizable=0;points=[];" vertex="1" connectable="0" parent="V5Aks7dAkCr-0SlDkymJ-37">
          <mxGeometry x="-0.1786" relative="1" as="geometry">
            <mxPoint as="offset" />
          </mxGeometry>
        </mxCell>
        <mxCell id="V5Aks7dAkCr-0SlDkymJ-25" value="查找这个对象&lt;br&gt;是否存在" style="rhombus;whiteSpace=wrap;html=1;shadow=0;fontFamily=Helvetica;fontSize=12;align=center;strokeWidth=1;spacing=6;spacingTop=-4;" vertex="1" parent="WIyWlLk6GJQsqaUBKTNV-1">
          <mxGeometry x="520" y="360" width="100" height="80" as="geometry" />
        </mxCell>
        <mxCell id="V5Aks7dAkCr-0SlDkymJ-39" style="edgeStyle=orthogonalEdgeStyle;rounded=0;orthogonalLoop=1;jettySize=auto;html=1;entryX=1;entryY=0.5;entryDx=0;entryDy=0;" edge="1" parent="WIyWlLk6GJQsqaUBKTNV-1" source="V5Aks7dAkCr-0SlDkymJ-28" target="V5Aks7dAkCr-0SlDkymJ-15">
          <mxGeometry relative="1" as="geometry">
            <Array as="points">
              <mxPoint x="860" y="400" />
              <mxPoint x="860" y="320" />
            </Array>
          </mxGeometry>
        </mxCell>
        <mxCell id="V5Aks7dAkCr-0SlDkymJ-28" value="写入&lt;br&gt;TC_NULL&lt;br&gt;空对象引用&amp;nbsp;" style="whiteSpace=wrap;html=1;shadow=0;strokeWidth=1;spacing=6;spacingTop=-4;" vertex="1" parent="WIyWlLk6GJQsqaUBKTNV-1">
          <mxGeometry x="710" y="370" width="120" height="60" as="geometry" />
        </mxCell>
        <mxCell id="V5Aks7dAkCr-0SlDkymJ-31" value="ObjectStreamConstants" style="swimlane;fontStyle=0;childLayout=stackLayout;horizontal=1;startSize=26;fillColor=none;horizontalStack=0;resizeParent=1;resizeParentMax=0;resizeLast=0;collapsible=1;marginBottom=0;" vertex="1" parent="WIyWlLk6GJQsqaUBKTNV-1">
          <mxGeometry x="10" y="390" width="200" height="130" as="geometry" />
        </mxCell>
        <mxCell id="V5Aks7dAkCr-0SlDkymJ-32" value="+ STREAM_MAGIC: short" style="text;strokeColor=none;fillColor=none;align=left;verticalAlign=top;spacingLeft=4;spacingRight=4;overflow=hidden;rotatable=0;points=[[0,0.5],[1,0.5]];portConstraint=eastwest;" vertex="1" parent="V5Aks7dAkCr-0SlDkymJ-31">
          <mxGeometry y="26" width="200" height="26" as="geometry" />
        </mxCell>
        <mxCell id="V5Aks7dAkCr-0SlDkymJ-33" value="+ b: String" style="text;strokeColor=none;fillColor=none;align=left;verticalAlign=top;spacingLeft=4;spacingRight=4;overflow=hidden;rotatable=0;points=[[0,0.5],[1,0.5]];portConstraint=eastwest;" vertex="1" parent="V5Aks7dAkCr-0SlDkymJ-31">
          <mxGeometry y="52" width="200" height="26" as="geometry" />
        </mxCell>
        <mxCell id="V5Aks7dAkCr-0SlDkymJ-34" value="+ c: String" style="text;strokeColor=none;fillColor=none;align=left;verticalAlign=top;spacingLeft=4;spacingRight=4;overflow=hidden;rotatable=0;points=[[0,0.5],[1,0.5]];portConstraint=eastwest;" vertex="1" parent="V5Aks7dAkCr-0SlDkymJ-31">
          <mxGeometry y="78" width="200" height="26" as="geometry" />
        </mxCell>
        <mxCell id="V5Aks7dAkCr-0SlDkymJ-35" value="- serialVersionUID: Long" style="text;strokeColor=none;fillColor=none;align=left;verticalAlign=top;spacingLeft=4;spacingRight=4;overflow=hidden;rotatable=0;points=[[0,0.5],[1,0.5]];portConstraint=eastwest;" vertex="1" parent="V5Aks7dAkCr-0SlDkymJ-31">
          <mxGeometry y="104" width="200" height="26" as="geometry" />
        </mxCell>
        <mxCell id="V5Aks7dAkCr-0SlDkymJ-41" value="True" style="edgeStyle=orthogonalEdgeStyle;rounded=0;orthogonalLoop=1;jettySize=auto;html=1;" edge="1" parent="WIyWlLk6GJQsqaUBKTNV-1" source="V5Aks7dAkCr-0SlDkymJ-36" target="V5Aks7dAkCr-0SlDkymJ-40">
          <mxGeometry relative="1" as="geometry" />
        </mxCell>
        <mxCell id="V5Aks7dAkCr-0SlDkymJ-46" value="else if" style="edgeStyle=orthogonalEdgeStyle;rounded=0;orthogonalLoop=1;jettySize=auto;html=1;" edge="1" parent="WIyWlLk6GJQsqaUBKTNV-1" source="V5Aks7dAkCr-0SlDkymJ-36" target="V5Aks7dAkCr-0SlDkymJ-45">
          <mxGeometry relative="1" as="geometry" />
        </mxCell>
        <mxCell id="V5Aks7dAkCr-0SlDkymJ-36" value="unshared 为 false 且&lt;br&gt;查找对象的数据存在handles" style="rhombus;whiteSpace=wrap;html=1;shadow=0;fontFamily=Helvetica;fontSize=12;align=center;strokeWidth=1;spacing=6;spacingTop=-4;" vertex="1" parent="WIyWlLk6GJQsqaUBKTNV-1">
          <mxGeometry x="470" y="480" width="200" height="100" as="geometry" />
        </mxCell>
        <mxCell id="V5Aks7dAkCr-0SlDkymJ-44" style="edgeStyle=orthogonalEdgeStyle;rounded=0;orthogonalLoop=1;jettySize=auto;html=1;entryX=1;entryY=0.5;entryDx=0;entryDy=0;" edge="1" parent="WIyWlLk6GJQsqaUBKTNV-1" source="V5Aks7dAkCr-0SlDkymJ-40" target="V5Aks7dAkCr-0SlDkymJ-15">
          <mxGeometry relative="1" as="geometry">
            <Array as="points">
              <mxPoint x="920" y="530" />
              <mxPoint x="920" y="320" />
            </Array>
          </mxGeometry>
        </mxCell>
        <mxCell id="V5Aks7dAkCr-0SlDkymJ-40" value="写入 &lt;br&gt;TC_REFERENCE 1字节&lt;br&gt;引用数据 4字节" style="whiteSpace=wrap;html=1;shadow=0;strokeWidth=1;spacing=6;spacingTop=-4;" vertex="1" parent="WIyWlLk6GJQsqaUBKTNV-1">
          <mxGeometry x="710" y="500" width="160" height="60" as="geometry" />
        </mxCell>
        <mxCell id="V5Aks7dAkCr-0SlDkymJ-43" style="edgeStyle=orthogonalEdgeStyle;rounded=0;orthogonalLoop=1;jettySize=auto;html=1;" edge="1" parent="WIyWlLk6GJQsqaUBKTNV-1" source="V5Aks7dAkCr-0SlDkymJ-42" target="V5Aks7dAkCr-0SlDkymJ-40">
          <mxGeometry relative="1" as="geometry" />
        </mxCell>
        <mxCell id="V5Aks7dAkCr-0SlDkymJ-42" value="引用数据特定标识 0x7E0000 3字节, 再加上引用下标, &lt;br&gt;写入到文件则是 0x007E00XX" style="shape=document;whiteSpace=wrap;html=1;boundedLbl=1;" vertex="1" parent="WIyWlLk6GJQsqaUBKTNV-1">
          <mxGeometry x="990" y="495" width="210" height="70" as="geometry" />
        </mxCell>
        <mxCell id="V5Aks7dAkCr-0SlDkymJ-48" value="" style="edgeStyle=orthogonalEdgeStyle;rounded=0;orthogonalLoop=1;jettySize=auto;html=1;" edge="1" parent="WIyWlLk6GJQsqaUBKTNV-1" source="V5Aks7dAkCr-0SlDkymJ-45" target="V5Aks7dAkCr-0SlDkymJ-47">
          <mxGeometry relative="1" as="geometry" />
        </mxCell>
        <mxCell id="V5Aks7dAkCr-0SlDkymJ-58" value="" style="edgeStyle=orthogonalEdgeStyle;rounded=0;orthogonalLoop=1;jettySize=auto;html=1;" edge="1" parent="WIyWlLk6GJQsqaUBKTNV-1" source="V5Aks7dAkCr-0SlDkymJ-45" target="V5Aks7dAkCr-0SlDkymJ-57">
          <mxGeometry relative="1" as="geometry" />
        </mxCell>
        <mxCell id="V5Aks7dAkCr-0SlDkymJ-45" value="对象是否为 Class" style="rhombus;whiteSpace=wrap;html=1;shadow=0;fontFamily=Helvetica;fontSize=12;align=center;strokeWidth=1;spacing=6;spacingTop=-4;" vertex="1" parent="WIyWlLk6GJQsqaUBKTNV-1">
          <mxGeometry x="500" y="610" width="140" height="80" as="geometry" />
        </mxCell>
        <mxCell id="V5Aks7dAkCr-0SlDkymJ-50" value="" style="edgeStyle=orthogonalEdgeStyle;rounded=0;orthogonalLoop=1;jettySize=auto;html=1;" edge="1" parent="WIyWlLk6GJQsqaUBKTNV-1" source="V5Aks7dAkCr-0SlDkymJ-47" target="V5Aks7dAkCr-0SlDkymJ-49">
          <mxGeometry relative="1" as="geometry" />
        </mxCell>
        <mxCell id="V5Aks7dAkCr-0SlDkymJ-47" value="写入 TC_CLASS 标识 1字节" style="whiteSpace=wrap;html=1;shadow=0;strokeWidth=1;spacing=6;spacingTop=-4;" vertex="1" parent="WIyWlLk6GJQsqaUBKTNV-1">
          <mxGeometry x="710" y="620" width="170" height="60" as="geometry" />
        </mxCell>
        <mxCell id="V5Aks7dAkCr-0SlDkymJ-55" style="edgeStyle=orthogonalEdgeStyle;rounded=0;orthogonalLoop=1;jettySize=auto;html=1;" edge="1" parent="WIyWlLk6GJQsqaUBKTNV-1" source="V5Aks7dAkCr-0SlDkymJ-49" target="V5Aks7dAkCr-0SlDkymJ-53">
          <mxGeometry relative="1" as="geometry" />
        </mxCell>
        <mxCell id="V5Aks7dAkCr-0SlDkymJ-49" value="写入 Class 信息" style="whiteSpace=wrap;html=1;shadow=0;strokeWidth=1;spacing=6;spacingTop=-4;" vertex="1" parent="WIyWlLk6GJQsqaUBKTNV-1">
          <mxGeometry x="735" y="700" width="120" height="30" as="geometry" />
        </mxCell>
        <mxCell id="V5Aks7dAkCr-0SlDkymJ-56" value="False return null" style="edgeStyle=orthogonalEdgeStyle;rounded=0;orthogonalLoop=1;jettySize=auto;html=1;" edge="1" parent="WIyWlLk6GJQsqaUBKTNV-1" source="V5Aks7dAkCr-0SlDkymJ-53" target="V5Aks7dAkCr-0SlDkymJ-49">
          <mxGeometry relative="1" as="geometry">
            <Array as="points">
              <mxPoint x="795" y="690" />
            </Array>
          </mxGeometry>
        </mxCell>
        <mxCell id="V5Aks7dAkCr-0SlDkymJ-53" value="判断是否存在 Serializable 接口&amp;nbsp;" style="rhombus;whiteSpace=wrap;html=1;shadow=0;strokeWidth=1;spacing=6;spacingTop=-4;" vertex="1" parent="WIyWlLk6GJQsqaUBKTNV-1">
          <mxGeometry x="940" y="675" width="135" height="80" as="geometry" />
        </mxCell>
        <mxCell id="V5Aks7dAkCr-0SlDkymJ-59" style="edgeStyle=orthogonalEdgeStyle;rounded=0;orthogonalLoop=1;jettySize=auto;html=1;entryX=1;entryY=0.75;entryDx=0;entryDy=0;" edge="1" parent="WIyWlLk6GJQsqaUBKTNV-1" source="V5Aks7dAkCr-0SlDkymJ-57" target="V5Aks7dAkCr-0SlDkymJ-23">
          <mxGeometry relative="1" as="geometry" />
        </mxCell>
        <mxCell id="V5Aks7dAkCr-0SlDkymJ-57" value="对象是否是 ObjectStreamClass" style="rhombus;whiteSpace=wrap;html=1;shadow=0;fontFamily=Helvetica;fontSize=12;align=center;strokeWidth=1;spacing=6;spacingTop=-4;" vertex="1" parent="WIyWlLk6GJQsqaUBKTNV-1">
          <mxGeometry x="500" y="740" width="140" height="80" as="geometry" />
        </mxCell>
      </root>
    </mxGraphModel>
  </diagram>
</mxfile>
